<?xml version="1.0" encoding="utf-8"?>
<svg viewBox="0 0 556 550" xmlns="http://www.w3.org/2000/svg">
  <path style="fill:#326161; stroke:none;" d="M189 251C184.445 251.682 180.343 253.531 176 255C182.135 240.264 189.319 226.435 185.711 210C184.505 204.509 179.797 195.049 173 195.542C167.701 195.927 161.751 201.823 158 205.174C148.657 213.519 141.256 224.024 135.309 235C132.746 239.729 131.36 246.568 127.925 250.643C123.616 255.755 113.153 246.736 110.228 254.228C106.65 263.396 109.646 275.901 112 285C100.746 287.347 110.257 305.641 112 313L104 313L104 271C104 265.427 102.521 257.324 104.603 252.09C106.027 248.511 110.098 246.362 113 244.112C116.94 241.057 120.519 237.604 123.961 234C134.673 222.781 139.999 209.154 141.714 194C143.119 181.581 134.772 171.356 127.884 162C125.906 159.312 123.441 153.811 119.816 153.133C116.008 152.42 111.292 156.463 108 158C103.858 142.862 91.2217 127.665 77 120.912C66.7077 116.025 55.1668 114.114 44 112.576C37.9906 111.749 32.0211 111.393 26 110.83C23.1782 110.566 20.0344 109.525 17.6381 111.607C15.0561 113.851 14.0722 117.993 12.6914 121C9.78714 127.325 6.63438 133.314 4.58642 140C-10.9061 190.575 29.3692 248.556 83 249L83 290C80.6659 285.232 80.2917 280.015 78.6412 275C74.714 263.069 67.7274 252.604 56 247.313C46.1459 242.868 33.5303 243.143 23 244.576C19.9475 244.992 15.0244 244.634 12.6427 246.938C10.1212 249.378 12.1694 255.953 12.5756 259C14.029 269.903 14.4904 279.868 21.5293 289C29.9843 299.969 42.4566 305.52 56 306.83C66.5167 307.848 74.5984 304.482 83 313C71.0107 313 58.9855 313.274 47 312.985C41.5388 312.854 35.9782 311.338 31.5324 315.569C26.5015 320.357 26.0104 328.525 26 335C25.9771 349.259 24.0005 363.898 26.0008 378C26.7995 383.631 28.021 390.895 34.0154 393.258C38.5362 395.04 45.7679 391.953 48.4869 397.148C50.286 400.586 50.5794 405.246 51.4252 409C53.0097 416.033 54.8861 423.114 57.0255 430C65.5941 457.579 77.1368 485.543 97.0895 507C113.392 524.531 135.071 540.408 159 545.482C168.71 547.541 180.094 546 190 546L250 546L334 546C347.312 546 362.97 548.261 376 545.482C386.447 543.254 397.508 538.046 407 533.244C425.703 523.783 443.159 511.311 456.535 495C479.495 467.004 490.427 429.408 495 394C498.428 393.972 501.673 393.742 505 392.841C526.724 386.957 522.029 364.722 522 347C521.988 339.418 523.064 325.301 518.347 319.105C514.062 313.476 507.474 313.003 501 313L469 313C469 308.111 467.694 301.352 473.059 298.828C479.039 296.014 488.299 301.511 495 300.826C512.301 299.056 525.569 286.783 534.971 273C540.692 264.614 544.751 255.265 544.985 245C545.052 242.06 545.62 236.843 542.566 235.086C539.125 233.105 533.431 238.09 530 238.956C525.356 240.128 520.699 239.709 516 240.286C508.31 241.231 500.806 243.597 494 247.312C485.804 251.787 479.781 257.798 475.312 266C472.634 270.916 471.911 276.953 468 281C468.583 273.61 469 266.437 469 259C469 255.212 468.271 250.545 470.603 247.285C480.804 233.035 498.564 238.148 513 231.688C544.886 217.418 559.149 184.1 553 151C545.784 152.113 540.654 159.063 534 162.1C527.141 165.229 519.675 166.571 513 170.179C492.771 181.113 477.131 199.585 471 222C466.979 209.285 469 194.205 469 181C482.893 179.235 498.019 175.869 508.999 166.674C515.007 161.644 521.297 154.617 513 149C519.303 143.246 535.022 133.165 521.989 125.367C520.09 124.231 518.102 123.607 516 123C518.27 119.319 523.754 113.709 523.006 109.043C522.531 106.078 519.318 104.411 516.999 103.015C511.147 99.4944 504.855 96.5985 498 96C499.839 89.2615 503.689 82.0548 503.863 75C503.943 71.7844 502.61 69.0301 501.785 66C501.084 63.4253 501.46 59.5911 499.397 57.618C496.355 54.7094 490.213 57.8348 487 59.0648C475.637 63.4146 465.905 70.2942 464 83C457.913 81.8195 443.393 77.6687 439.028 84.314C435.717 89.3547 439.22 97.6945 440 103C437.935 102.39 436.169 102.043 433.995 102.018C430.648 101.979 426.097 102.082 423.603 104.703C418.672 109.885 425.327 122.982 428 128C418.809 129.282 420.495 134.613 422.72 142C425.814 152.273 430.235 162.359 438.015 169.96C440.921 172.799 445.835 175.198 447.397 179.093C448.574 182.031 448 185.901 448 189L448 207C440.902 194.839 434.893 182.475 426.575 171C417.937 159.085 407.345 148.49 401.084 135C397.192 126.614 393.987 117.749 391.003 109C389.495 104.578 388.334 98.6419 383.895 96.179C376.42 92.032 368.294 98.5321 365.139 105C363.001 109.381 362.606 114.295 361.576 119C359.111 130.256 358 141.494 358 153C349.783 142.31 342.867 130.659 334.576 120C329.953 114.058 322.137 107.11 319.6 100C317.483 94.069 319.337 86.2261 318.91 80C317.884 65.0064 316.262 49.1649 310.935 35C307.737 26.4954 303.622 18.6101 298.691 11C295.223 5.64789 292.021 0.873596 285 1.05865C276.374 1.28601 272.753 8.53949 268.681 15C264.188 22.1292 259.603 29.1367 254.709 36C252.521 39.0687 250.334 43.1242 246.91 44.9722C244.022 46.5306 240.166 45.9997 237 46C235.832 38.2081 231.619 30.4848 227.251 24C224.35 19.6939 220.891 15.888 217.285 12.1697C214.961 9.77429 212.574 7.41431 209.996 5.29016C203.961 0.316956 194.666 -0.724915 191.264 8.0401C189.468 12.6677 189.519 18.1489 188.551 23C185.976 35.9026 184.227 49.0085 182.08 62C181.094 67.9652 180.968 73.23 176.811 77.9962C169.023 86.9242 157.459 92.3398 146 94.7145C135.183 96.9562 123.776 93.9726 118.05 106C117.153 107.884 116.605 109.94 116.301 112C113.113 133.628 129.412 161.041 149 169.254C160.779 174.193 173.426 171.082 182.775 182.015C188.369 188.557 186.82 197.036 187.015 205C187.39 220.308 189 235.671 189 251z"/>
  <path style="stroke: none; fill: rgb(253, 254, 254);" d="M275.548 38.1759C272.936 39.5616 272.033 45.5139 270.651 48C267.454 53.7517 262.055 60.1075 256 62.9869C252.447 64.6765 247.825 64 244 64C234.67 64 222.924 62.1114 214 65.1049C202.392 68.9988 191.298 79.2318 183.09 88.0008C179.161 92.1978 175.767 97.0185 171 100.351C164.867 104.638 157.111 105.131 150.044 106.769C147.916 107.263 144.42 108.728 146.712 111.431C150.647 116.07 162.84 114.089 168 113.246C173.729 112.31 180.962 111.424 185.816 108.005C189.691 105.275 192.209 100.542 195.289 97C202.655 88.5312 212.888 77.9461 224 74.7886C239.11 70.4951 259.9 78.6779 272.996 68.4707C280.093 62.9391 282.629 55.7719 281.907 47C281.696 44.4466 279.869 35.8834 275.548 38.1759M203.603 39.0717C200.689 41.0965 201.493 49.6945 200.481 53C199.391 56.5615 193.607 61.9516 194.751 65.6628C195.371 67.6765 197.576 67.1563 199.019 66.5231C202.174 65.1398 204.8 62.73 208 61.3626C209.961 60.5246 212.739 60.3817 214.397 58.9877C219.003 55.1125 213.357 44.4906 210.39 41.2284C208.847 39.5313 205.917 37.4647 203.603 39.0717M472 96C476.96 94.4839 479.466 89.8462 482.75 86.0394C484.843 83.6126 487.125 81.355 489.196 78.9105C491.073 76.6951 498.914 67.9959 493.562 65.6466C490.354 64.2384 485.644 67.3363 483 68.8766C472.826 74.8036 468.466 84.8293 472 96M450.005 87.4445C448.307 87.7383 445.264 88.1655 444.921 90.3102C444.477 93.0934 447.93 95.5118 449.54 97.2855C453.53 101.679 460.227 113.728 467.772 112.122C473.15 110.977 470.71 100.34 469.517 97.0008C466.733 89.2053 457.689 86.1144 450.005 87.4445M493 102.61C488.834 103.677 484.171 106.009 481.323 109.3C479.8 111.059 478.563 114.083 481.323 115.382C483.823 116.559 487.39 115.295 490 115.086C496.72 114.546 505.523 115.204 511.847 112.772C516.489 110.987 512.619 107.306 509.981 105.8C504.984 102.948 498.706 101.148 493 102.61M431.662 111.027C429.043 113.408 433.351 116.77 435.019 118.101C441.182 123.017 447.707 127.621 454 132.38C456.091 133.962 459.66 136.939 462.397 134.953C465.867 132.434 463.039 124.828 461.362 122.039C457.011 114.805 448.787 112.259 441 110.666C438.507 110.156 433.811 109.073 431.662 111.027M205 119.425C202.287 119.796 195.636 119.862 195.636 123.885C195.635 128.331 206.979 129.604 202.353 135.571C199.885 138.754 193.684 139.192 190 139.715C178.939 141.283 168.163 142 157 142C154.257 142 142.273 140.413 143.89 145.846C145.134 150.022 153.377 152.548 157 153.935C162.462 156.026 168.29 158.207 174 159.486C182.213 161.326 189.904 161.151 195.031 169.004C200.042 176.679 201.095 186.144 202.155 195C204.462 214.275 203.446 233.777 205.715 253C206.534 259.947 206.315 267.048 207.109 273.995C207.32 275.842 208.123 279.572 210.791 279.079C214.556 278.382 213.04 265.924 213.424 263C215.791 244.974 215.076 226.905 219.235 209C220.617 203.054 222.351 195.863 226.532 191.213C229.597 187.805 234.292 186.163 238 183.56C244.527 178.978 250.499 173.156 254.179 166C256.079 162.304 257.571 158.161 257.907 154C260.217 125.364 228.137 116.265 205 119.425M49 159C55.0433 165.175 59.595 171.715 62.2539 180C63.4356 183.682 63.5793 192.569 66.7415 194.957C69.4395 196.994 73.7011 194.391 76 192.891C83.1848 188.203 88.766 180.65 89.8156 172C92.7162 148.094 70.5419 132.775 50 127.152C44.2167 125.569 34.9851 123.049 29.0432 124.773C22.4345 126.691 18.7146 140.132 17.0401 146C10.9654 167.287 16.6361 202.707 44 204.907C46.6185 205.117 49.4059 205.112 52 204.674C70.8087 201.502 60.3249 176.302 53.7608 166.002C52.2431 163.62 50.5432 161.363 49 159M478 136C482.323 135.659 486.699 135.147 491 134.576C494.021 134.174 496.952 134.006 500 134C502.049 133.996 513.131 134.507 509.914 129.608C508.249 127.073 503.738 126.471 501 126.174C492.962 125.3 480.007 126.569 478 136M432.643 137.028C430.293 139.05 432.511 143.025 433.854 144.96C438.33 151.408 446.731 153.562 453 157.769C454.843 159.006 458.739 162.784 460.972 160.338C463.416 157.661 461.35 151.695 460 149C456.274 141.56 448.284 136.429 440 136.04C437.879 135.941 434.394 135.522 432.643 137.028M466 161C470.921 162.07 475.103 160.765 480 160.156C488.529 159.094 499.253 158.729 507 155C505.102 150.231 500.675 150.098 496 149.428C486.587 148.08 469.133 150.348 466 161M394 160C393.358 165.576 397.346 170.488 400.355 175C407.743 186.078 416.435 196.313 424.37 207C426.93 210.447 429.988 214.07 431.783 217.995C432.434 219.418 433.257 221.76 431.458 222.758C429.752 223.706 427.45 222.347 425.999 221.512C421.743 219.064 418.811 215.347 414 214C415.334 230.332 424.915 246.801 434.025 260C436.255 263.231 442.302 274.09 447.412 269.381C449.699 267.273 449.833 262.876 449.961 260C450.307 252.177 449.998 244.515 447.653 237C440.254 213.29 424.954 192.647 408.09 174.985C403.363 170.035 399.452 164.17 394 160M113.981 164.176C110.204 165.536 106.839 170.069 104.289 173C95.1773 183.476 90.3545 195.195 89.3248 209C88.9557 213.95 89.8746 220.117 91.0586 224.941C91.4906 226.701 92.4796 228.954 94.7554 228.248C98.3281 227.14 99.2722 218.098 100.344 215C104.777 202.188 114.341 191.18 117.475 178C118.213 174.897 121.109 161.609 113.981 164.176M497 201C504.572 197.799 518.279 181.286 523 195C530.642 192.808 535.68 182.406 537 175C523.598 177.308 502.89 188.37 497 201M172.112 203.346C168.202 204.547 164.945 210.864 161.961 213.576C150.274 224.197 137.079 236.908 137.079 254C137.079 261.457 140.147 269.634 143.88 275.995C145.156 278.171 147.557 282.188 150.693 281.248C152.968 280.567 152.566 277.788 152.405 275.995C151.933 270.728 151.639 265.271 152.286 260C153.368 251.199 156.481 244.109 161.759 237C166.091 231.166 172.076 226.238 174.072 219C175.06 215.415 176.148 209.755 175.512 206.063C175.217 204.347 174.056 202.748 172.112 203.346M488 271C495.205 267.789 500.738 261.639 508 258.325C509.734 257.534 514.539 255.311 515.462 258.358C516.524 261.865 510.738 268.184 510 272C518.805 270.666 527.987 260.471 530 252C514.559 252.663 493.875 253.3 488 271M57 278C52.4711 277.159 48.4627 276.681 44 278C46.6935 285.276 56.8028 290.374 64 292.366C66.5184 293.063 71.0244 293.78 73.2577 291.972C77.0557 288.898 74.0037 279.632 72.5185 276C67.8537 264.59 55.4318 259.293 44 257.438C40.3473 256.846 35.7425 255.74 32.0594 256.188C30.6097 256.364 28.5956 257.058 28.9213 258.924C29.4349 261.865 34.717 263.153 37 264.154C44.7528 267.553 51.0036 272.054 57 278M127 277C131.029 279.868 135.101 282.127 140 283C141.365 273.913 134.135 266.467 127 261.866C124.405 260.192 119.677 256.744 117.179 260.333C114.052 264.826 116.393 275.128 117.862 279.941C119.347 284.808 122.973 283.481 125.43 280.102C126.104 279.175 126.513 278.011 127 277M182 259.465C169.828 261.659 162.652 273.139 158.695 284C157.781 286.509 152.269 299.414 158.133 299.248C163.185 299.106 166.202 290.562 168.425 287C171.608 281.9 175.179 277.402 180 273.75C183.527 271.078 188.728 269.228 191.522 265.781C196.759 259.32 185.88 258.765 182 259.465M131 313L149 313C146.15 303.13 137.944 295.714 128 293.238C125.763 292.681 116.594 289.353 115.921 293.282C115.397 296.343 120.037 298.609 122 300.039C126.687 303.455 130.215 307.129 131 313M72 376L72 353C72.0016 349.371 71.5128 345.123 74.3179 342.318C77.3229 339.313 82.1288 340 86 340C95.7189 339.999 105.316 339.001 115 339L231 339C237.749 339 244.295 338.333 251 338.039C261.118 337.596 267.948 338.464 277 333.336C280.025 331.623 286.227 330.121 287.824 326.784C290.236 321.746 278.256 323 276 323L233 323C193.392 323 153.682 324 114 324L74 324C67.6054 324 60.2468 323.012 54 324.533C39.7593 328 44 349.07 44 360C44 363.88 42.5929 371.386 45.6034 374.397C47.4743 376.268 50.5818 375.983 53 375.999C59.3327 376.043 65.6671 376 72 376M66 392C66.0719 400.572 69.0943 408.822 71.4421 417C76.3752 434.182 82.9272 450.568 92.0108 466C95.4433 471.832 99.0646 477.899 103.616 482.941C104.926 484.391 107.941 487.678 109.958 485.338C111.39 483.677 110.453 480.832 109.985 479C108.694 473.953 106.943 469.04 105.629 464C101.465 448.026 96.8548 432.309 94.081 416C93.1733 410.663 92.1926 405.361 91.4244 400C91.1423 398.031 91.2796 395.237 89.973 393.603C88.4054 391.643 85.2182 392.016 83 392.001L66 392M272 404.613C260.251 407.389 258.903 422.686 261.928 432C263.722 437.522 268.692 442.844 275 441.59C286.48 439.309 288.959 423.217 285.437 414C283.416 408.712 278.216 403.144 272 404.613M234.015 431.858C224.541 435.781 222.575 451.667 226.573 459.999C229.291 465.666 235.743 469.827 241.985 467.062C251.151 463.001 253.245 448.357 249.633 440C246.994 433.896 240.863 429.022 234.015 431.858M306.001 431.742C295.716 435.671 294.405 450.036 297.613 459C299.869 465.303 306.276 469.888 312.996 467.142C322.829 463.123 324.308 448.737 321.034 440.001C318.734 433.863 312.744 429.166 306.001 431.742M271.004 461.654C266.715 462.993 264.217 466.63 261.576 470.001C256.632 476.309 244.779 486.615 253.394 494.667C255.755 496.873 258.202 496.297 261 495.416C266.622 493.646 272.082 492.352 278 493.468C282.5 494.316 287.347 497.903 291.996 496.242C296.399 494.669 299.786 489.677 298.421 485C297.336 481.283 294.151 478.037 291.873 475C286.751 468.169 281.163 458.48 271.004 461.654z"/>
</svg>