<?xml version="1.0" encoding="utf-8"?>
<svg viewBox="0 0 558 552" xmlns="http://www.w3.org/2000/svg">
  <path style="fill:#fefefe; stroke:none;" d="M190 253C185.445 253.682 181.343 255.531 177 257C183.216 242.069 190.015 228.628 186.686 212C185.581 206.48 180.747 197.074 174 197.542C168.55 197.92 162.818 203.734 159 207.171C150.259 215.04 142.907 224.672 137.309 235C134.432 240.306 132.769 248.083 128.925 252.643C124.746 257.601 114.849 249.109 111.589 255.318C107.062 263.939 110.552 278.289 113 287C101.747 289.348 111.277 307.725 113 315L105 315L105 273C105 267.427 103.521 259.324 105.603 254.09C107.027 250.511 111.098 248.362 114 246.112C117.94 243.057 121.519 239.604 124.961 236C135.737 224.715 140.978 211.282 142.714 196C144.098 183.806 136.358 174.287 129.71 165C127.619 162.079 124.705 155.86 120.816 155.133C117.007 154.421 112.293 158.463 109 160C104.822 144.723 92.2559 129.85 78 122.901C67.7063 117.883 56.1984 116.187 45 114.579C39.0187 113.721 33.0041 113.399 27 112.83C24.1741 112.562 21.0391 111.53 18.6373 113.607C16.324 115.608 15.0569 119.299 13.7809 122C10.5588 128.82 7.42661 135.757 5.29398 143C-9.55795 193.443 30.8449 250.56 84 251L84 292C81.7132 287.275 81.3042 281.982 79.6451 277C75.6368 264.964 68.8559 254.673 57 249.313C46.8429 244.722 34.8223 245.437 24 246.715C20.9624 247.073 15.9468 246.128 13.6427 248.603C11.1366 251.296 13.1452 257.761 13.5756 261C15.004 271.747 14.934 280.807 21.7608 290C30.1761 301.332 42.2564 307.026 56 308.714C66.7215 310.03 75.4399 306.322 84 315C72.336 315 60.6631 315.134 49 314.996C43.9962 314.937 38.7267 313.392 34.1852 316.279C28.8823 319.65 27.4968 327.189 27.0895 333C26.5076 341.303 27.3247 349.686 26.9606 358C26.5058 368.387 24.2938 381.426 30.0895 390.956C34.7798 398.669 44.5456 392.39 48.8603 398.318C52.7261 403.629 53.0082 413.694 54.6296 420C58.2227 433.973 62.7637 447.727 68.4275 461C85.0217 499.89 116.544 538.267 160 547.482C173.344 550.312 189.369 548 203 548L310 548L353 548C360.472 548 368.618 548.905 376 547.674C382.537 546.585 388.888 543.445 395 541C411.925 534.23 428.391 525.078 442 512.829C465.143 492.001 479.128 465.642 487.579 436C489.943 427.708 491.522 419.444 493.2 411C493.929 407.333 494.012 402.533 495.589 399.148C497.36 395.343 502.538 395.975 506 394.957C511.731 393.271 517.614 390.271 520.772 384.985C523.646 380.173 523 374.373 523 369C523 357.259 522.894 345.686 522.089 334C521.615 327.111 521.711 321.308 514.985 317.367C510.054 314.479 504.491 315 499 315L470 315C470 310.111 468.694 303.352 474.059 300.828C479.875 298.092 488.567 303.331 495 302.699C514.178 300.814 528.127 287.81 537.934 272C542.857 264.065 545.933 255.392 545.995 246C546.014 243.248 546.401 238.717 543.566 237.086C540.09 235.085 534.41 240.133 531 241.072C518.559 244.496 506.94 242.756 495 249.313C486.962 253.727 480.507 259.838 476.262 268C473.582 273.153 472.834 279.65 469 284C469.159 276.315 470 268.731 470 261C470 257.212 469.271 252.545 471.603 249.285C481.734 235.133 499.585 240.186 514 233.688C533.227 225.022 550.152 205.975 554.485 185C556.744 174.068 555.377 163.887 554 153C547.08 154.068 542.31 160.544 536 163.511C530.186 166.244 523.866 167.607 518 170.173C506.599 175.161 495.666 183.199 488.015 193C483.461 198.835 480.012 205.379 476.756 212C474.69 216.202 473.346 220.661 470 224L470 196C470 192.668 469.033 187.332 471.028 184.434C473.269 181.177 479.525 181.744 483 180.845C493.943 178.015 504.897 174.287 512.957 165.985C517.857 160.937 520.852 155.46 514 151C520.312 145.238 536.126 135.228 522.989 127.367C521.09 126.231 519.102 125.607 517 125C519.214 121.11 523.629 116.73 523.638 112.015C523.645 108.498 520.681 106.65 517.995 105.015C512.209 101.493 505.835 98.3508 499 98C500.821 91.3252 504.813 83.9986 504.813 77C504.813 73.858 503.518 70.9937 502.76 68C502.11 65.4293 502.448 61.5801 500.397 59.618C497.355 56.7094 491.213 59.8348 488 61.0648C476.999 65.2757 466.294 72.3635 465 85C458.925 83.8554 444.354 79.728 440.028 86.314C436.717 91.3547 440.22 99.6945 441 105C438.935 104.39 437.17 104.043 434.995 104.018C431.648 103.979 427.097 104.082 424.603 106.703C419.709 111.847 426.203 125.081 429 130C426.854 130.425 423.44 130.598 422.067 132.589C420.06 135.5 422.716 141.073 423.67 144C427.08 154.462 431.004 164.108 439.015 171.961C441.907 174.796 446.805 177.319 448.397 181.174C449.482 183.802 449 187.222 449 190L449 209C442.112 197.199 436.284 185.185 428.29 174C418.963 160.948 408.296 149.583 401.258 135C397.419 127.045 394.579 118.331 391.657 110C390.239 105.958 388.91 100.426 384.892 98.179C377.432 94.0076 369.284 100.553 366.139 107C364.001 111.381 363.606 116.295 362.576 121C360.1 132.309 359 143.443 359 155C350.529 143.98 343.212 132.066 334.765 121C330.399 115.279 323.026 108.801 320.6 102C318.582 96.3452 320.317 88.932 319.91 83C318.875 67.8721 317.426 52.4013 312.302 38C309.144 29.1258 304.798 20.8816 299.691 13C296.223 7.64789 293.021 2.8736 286 3.05865C277.374 3.28601 273.753 10.5395 269.681 17C265.188 24.1291 260.603 31.1367 255.709 38C253.521 41.0687 251.334 45.1242 247.91 46.9722C245.022 48.5306 241.166 47.9997 238 48C236.832 40.2079 232.619 32.4851 228.251 26C225.236 21.5245 221.722 17.3118 217.83 13.5756C214.152 10.0447 210.002 5.15759 205 3.56482C197.997 1.3349 192.845 6.63971 191.454 13C187.787 29.7635 185.88 47.0607 183.08 64C182.094 69.9652 181.968 75.2299 177.811 79.9962C169.713 89.2795 157.832 94.4389 146 96.9854C135.661 99.2104 124.308 96.1218 118.97 108C118.122 109.886 117.599 111.958 117.301 114C114.236 134.973 129.829 162.666 149 170.767C161.004 175.84 174.374 173.02 183.775 184.015C189.369 190.557 187.82 199.036 188.015 207C188.389 222.288 189.99 237.703 190 253z"/>
  <path style="fill:#326161; stroke:none;" d="M276.548 40.1759C273.936 41.5616 273.033 47.5139 271.651 50C268.418 55.8162 263.113 61.9291 257 64.8356C253.368 66.5624 248.908 66 245 66C235.844 66 223.709 63.9286 215 66.9661C203.436 70.9991 192.302 81.2232 184.09 90.0008C180.41 93.9333 177.385 98.9371 172.91 102.031C166.202 106.669 157.748 107.078 150.11 109.058C148.087 109.582 145.794 111.205 147.712 113.42C151.672 117.992 162.903 115.767 168 115.155C174.075 114.426 181.67 113.63 186.816 110.005C191.012 107.05 193.923 101.834 197.286 98C204.69 89.5623 214.785 79.3639 226 76.5147C240.89 72.7318 261.358 80.3208 273.996 70.4707C281.093 64.9391 283.629 57.7719 282.907 49C282.696 46.4466 280.869 37.8834 276.548 40.1759M195 69C200.872 68.6066 204.668 64.9678 210 62.9645C212.239 62.1231 215.579 62.0227 216.879 59.6829C219.659 54.6798 212.28 40.0327 206.133 40.5463C203.723 40.7477 203.249 43.0275 203.058 45.0193C202.65 49.2572 202.641 53.0214 200.811 57C198.847 61.2702 195.722 64.2353 195 69M473 98C477.892 96.1889 480.429 91.8885 483.75 88.0394C485.844 85.613 488.127 83.3565 490.196 80.9105C492.018 78.7565 499.701 69.948 494.551 67.6466C491.367 66.2237 486.623 69.3482 484 70.8766C473.826 76.8036 469.466 86.8293 473 98M450.019 89.483C448.21 89.8962 445.582 90.7379 445.921 93.1049C446.324 95.9153 449.779 98.0585 451.483 100.09C455.484 104.859 460.943 115.025 468.772 113.577C474.411 112.534 471.717 101.335 470.196 98.0038C466.83 90.6325 457.564 87.7603 450.019 89.483M494 104.61C489.785 105.688 485.147 107.96 482.167 111.184C480.41 113.087 479.041 116.039 482.167 117.382C484.811 118.518 488.267 117.289 491 117.089C497.59 116.606 505.57 117.096 511.89 115.137C517.027 113.545 514.384 109.599 510.98 107.649C506.08 104.843 499.561 103.187 494 104.61M432.623 113.014C429.503 115.503 434.221 118.79 436.019 120.14L455 134.38C457.039 135.923 460.587 138.934 463.258 136.953C466.78 134.341 464.096 126.923 462.362 124.039C457.861 116.555 449.076 114.07 441 112.754C438.56 112.356 434.793 111.282 432.623 113.014M206 121.425C203.286 121.796 196.638 121.861 196.636 125.884C196.633 130.205 207.61 131.584 203.292 137.57C200.892 140.897 194.657 140.973 191 141.586C179.876 143.453 169.262 144 158 144C155.387 144 142.865 142.487 145.176 147.954C146.983 152.228 154.068 154.238 158 155.796C164.484 158.365 171.196 160.567 178 162.112C185.376 163.787 191.448 164.056 196.034 171.004C201.116 178.703 202.126 188.1 203.282 197C205.778 216.222 204.057 235.821 206.576 255C207.487 261.943 207.155 269.066 208.305 275.995C208.581 277.661 209.324 281.566 211.826 281.079C213.609 280.731 213.812 278.403 213.941 276.981C214.304 272.986 213.899 269 214.424 265C216.788 246.997 216.079 228.891 220.235 211C221.604 205.107 223.312 197.819 227.532 193.263C230.358 190.213 234.608 188.465 238 186.115C244.937 181.309 251.264 175.613 255.179 168C257.079 164.304 258.571 160.161 258.907 156C261.212 127.429 229.1 118.27 206 121.425M51 162C56.8598 168.14 61.1159 174.827 63.5617 183C64.6056 186.488 64.7314 194.684 67.7415 196.957C70.7248 199.209 75.5866 195.929 78 194.211C85.5366 188.843 90.5871 180.211 91.6852 171C94.3973 148.25 67.2358 133.295 49 128.63C43.8004 127.299 35.3301 125.239 30.0432 126.773C23.4345 128.691 19.7146 142.132 18.0401 148C12.0244 169.081 17.321 203.572 44 206.816C46.6062 207.132 49.3916 207.111 52 206.826C71.3461 204.717 61.7285 179.516 55.385 169.002L51 162M479 138C485.054 137.875 490.972 136.502 497 136.09C502.1 135.74 506.98 136.195 512 135C508.259 122.566 482.171 126.969 479 138M434.333 138.067C431.101 140.107 433.223 144.608 434.854 146.96C439.163 153.17 446.956 155.101 452.985 159.1C454.973 160.419 458.763 164.801 461.436 162.914C464.708 160.603 462.364 153.724 461 151C457.325 143.661 449.945 139.184 442 138.004C439.71 137.664 436.453 136.729 434.333 138.067M467 163C472.324 164.223 476.71 162.671 482 162.051C485.688 161.619 489.348 161.072 493 160.389C495.708 159.882 507.884 159.639 507.079 155.205C506.486 151.943 498.487 151.78 496 151.428C486.895 150.139 469.977 152.878 467 163M395 162C394.304 168.043 398.977 173.226 402.283 178C409.642 188.625 417.818 198.626 425.522 209C428.066 212.426 430.974 216.142 432.833 219.995C433.524 221.427 434.449 223.755 432.574 224.758C430.814 225.701 428.499 224.372 427 223.512C422.74 221.069 419.812 217.348 415 216C417.148 232.63 425.618 248.376 435.025 262C437.185 265.128 443.514 275.846 448.4 271.377C450.412 269.539 450.585 265.527 450.83 263C451.61 254.977 451.055 246.698 448.653 239C441.237 215.235 425.807 194.86 409.09 176.999C404.418 172.009 400.443 166.163 395 162M114.981 166.176C111.218 167.53 107.819 172.061 105.3 175C96.4485 185.326 91.7111 196.5 90.4645 210C90.0084 214.939 90.6635 221.152 91.8233 225.981C92.2587 227.793 93.2042 231.098 95.7948 230.248C99.1132 229.161 100.315 219.964 101.344 217C105.824 204.098 114.962 193.157 118.511 180C119.341 176.921 122.255 163.557 114.981 166.176M498 203C505.572 199.799 519.279 183.286 524 197C531.545 194.786 536.849 184.38 538 177C524.598 179.308 503.89 190.37 498 203M173.112 205.346C169.146 206.562 165.948 212.958 162.961 215.715C151.375 226.406 138.029 238.886 138.029 256C138.029 263.438 141.076 271.697 144.93 277.995C146.14 279.973 148.66 284.2 151.591 283.248C153.739 282.551 153.338 279.706 153.242 277.995C152.926 272.418 152.565 266.559 153.289 261C154.362 252.768 157.666 245.573 162.676 239C166.786 233.607 172.708 228.664 174.695 222C175.832 218.188 176.932 213.007 176.682 209.02C176.56 207.076 175.526 204.605 173.112 205.346M489 273C496.205 269.789 501.738 263.639 509 260.325C510.734 259.534 515.539 257.311 516.462 260.358C517.524 263.865 511.738 270.184 511 274C519.923 272.273 528.918 262.762 531 254C516.307 254.303 493.841 255.593 489 273M58 280C53.471 279.159 49.4627 278.681 45 280C47.6961 287.239 57.7863 292.542 65 294.39C67.6757 295.076 72.8235 295.942 74.8202 293.397C77.5207 289.954 74.9739 281.59 73.5177 278C68.9597 266.763 56.333 261.064 45 259.296C41.3262 258.723 36.7594 257.635 33.0594 258.163C31.6158 258.369 29.5949 259.054 29.9213 260.924C30.4433 263.913 35.6899 265.046 38 266.012C45.7961 269.271 52.0366 274.087 58 280M128 279C132.131 281.724 136.087 284.124 141 285C140.918 275.866 136.392 269.642 128.999 264.44C126.039 262.356 120.078 258.073 117.742 263.152C115.476 268.082 117.346 276.975 118.862 281.941C120.347 286.808 123.973 285.481 126.43 282.102C127.104 281.175 127.513 280.011 128 279M183 261.468C170.204 263.881 163.64 275.798 159.425 287C158.509 289.434 153.378 301.411 159.133 301.248C164.255 301.104 166.986 292.572 169.229 289C172.65 283.554 176.785 278.734 182 274.927C185.303 272.517 189.935 271.04 192.522 267.791C197.795 261.171 186.978 260.717 183 261.468M132 315L150 315C147.058 304.811 138.92 298.255 129 295.205C126.743 294.511 117.631 291.093 116.921 295.279C116.402 298.344 121.031 300.608 123.001 302.039C127.762 305.498 131.332 309.001 132 315M290 326C281.376 323.947 271.826 325 263 325C245.609 325 228.328 325.202 211 325.961C177.474 327.429 143.562 326 110 326L68 326C61.8348 326 54.2936 325.218 49.2137 329.51C43.2731 334.53 45 344.101 45 351C45 357.33 44.8856 363.671 45.0046 370C45.0514 372.484 44.9979 375.424 47.3179 376.972C50.668 379.208 57.1571 378 61 378C63.8829 378 68.0162 378.708 70.6821 377.397C73.8414 375.842 72.9987 370.876 73 368C73.0032 360.852 69.7695 344.678 79.0046 342.318C83.6811 341.123 89.2031 342.171 94 341.961C106.682 341.405 119.261 341 132 341L237 341C243.056 341 248.975 340.076 255 340.004C259.778 339.947 265.365 340.819 270 339.49C273.232 338.564 276.054 336.342 279 334.782C283.529 332.383 288.42 331.257 290 326M68.6073 395.028C64.6611 398.214 69.9978 411.008 71.1412 415C76.7147 434.461 83.7883 453.837 94.6952 471C97.7221 475.763 100.824 480.741 104.616 484.941C105.88 486.341 108.207 489.067 110.397 487.824C112.624 486.56 111.46 482.858 110.985 481C109.437 474.947 107.418 469.01 105.71 463C101.692 448.859 97.7694 434.496 95.25 420C94.0531 413.114 94.5402 402.499 91.4005 396.318C89.2455 392.075 78.0008 393.929 74.0008 394.005C72.279 394.037 70.0431 393.869 68.6073 395.028M273 406.693C261.628 409.687 259.615 424.613 262.789 434C264.777 439.877 270.391 445.333 276.999 443.343C287.565 440.162 289.868 424.978 286.437 416C284.428 410.745 279.198 405.061 273 406.693M235.015 433.858C225.38 437.848 223.705 453.621 227.724 461.999C230.512 467.811 236.629 471.726 242.985 468.91C252.048 464.895 254.229 450.32 250.633 442C247.994 435.896 241.863 431.022 235.015 433.858M307.001 433.742C296.726 437.668 295.298 452.099 298.715 460.999C301.069 467.133 307.267 471.89 313.996 469.142C323.805 465.136 325.405 450.672 322.045 442.001C319.678 435.891 313.786 431.15 307.001 433.742M272.004 463.654C268.125 464.865 265.76 467.938 263.35 471.004C258.37 477.34 245.682 488.523 254.394 496.667C256.754 498.873 259.202 498.297 262 497.416C267.622 495.646 273.082 494.352 279 495.468C283.5 496.316 288.347 499.903 292.996 498.242C297.399 496.669 300.786 491.677 299.421 487C298.336 483.283 295.151 480.037 292.873 477C287.751 470.169 282.163 460.48 272.004 463.654z"/>
</svg>